<svg width="210" height="63" viewBox="0 0 210 63" fill="none" xmlns="http://www.w3.org/2000/svg">
<rect width="30.3031" height="13.2024" transform="matrix(0.809017 -0.587785 0.956305 0.292372 6.58032 57.0974)" fill="#A7F3D0"/>
<path d="M49.9711 31.8801L47.7987 44.8041L25.8168 38.0836L49.9711 31.8801Z" fill="#A7F3D0"/>
<path d="M5.99951 0L19.0712 3.99643V61.5L5.99951 57.2088V0Z" fill="white"/>
<path d="M5.99951 0L19.0712 3.99643L18.9995 61.5L12.8794 49.6431L5.99951 57.2088V0Z" fill="#34D399"/>
<path d="M58.7836 45V18.8182H60.3816V43.517H73.1657V45H58.7836ZM83.687 45.4219C82.5535 45.4219 81.5137 45.196 80.5677 44.7443C79.6302 44.2926 78.8759 43.6321 78.3049 42.7628C77.7424 41.8935 77.4612 40.8366 77.4612 39.5923C77.4612 38.7741 77.606 38.054 77.8958 37.4318C78.1856 36.8097 78.633 36.2727 79.2381 35.821C79.8433 35.3693 80.6188 34.9986 81.5649 34.7088C82.5109 34.4105 83.6401 34.1804 84.9526 34.0185C85.9498 33.8991 86.8404 33.7841 87.6245 33.6733C88.4086 33.554 89.0222 33.3707 89.4654 33.1236C89.9171 32.8764 90.143 32.5014 90.143 31.9986V31.1804C90.143 29.7486 89.6913 28.6108 88.7879 27.767C87.8845 26.9233 86.6401 26.5014 85.0549 26.5014C83.6487 26.5014 82.464 26.8125 81.5009 27.4347C80.5464 28.0483 79.8774 28.8409 79.4938 29.8125L78.0237 29.2628C78.3987 28.3253 78.9399 27.5455 79.6472 26.9233C80.3631 26.3011 81.1813 25.8366 82.1018 25.5298C83.0308 25.223 84.0024 25.0696 85.0166 25.0696C85.8944 25.0696 86.7296 25.1932 87.5222 25.4403C88.3234 25.6875 89.035 26.0625 89.6572 26.5653C90.2879 27.0682 90.7864 27.7116 91.1529 28.4957C91.5194 29.2713 91.7026 30.2003 91.7026 31.2827V45H90.143V41.4588H90.0279C89.687 42.1918 89.2183 42.8608 88.6217 43.4659C88.0336 44.0625 87.322 44.5398 86.4867 44.8977C85.66 45.2472 84.7268 45.4219 83.687 45.4219ZM83.8404 43.9773C85.0677 43.9773 86.1543 43.679 87.1004 43.0824C88.0549 42.4773 88.8006 41.6506 89.3376 40.6023C89.8745 39.554 90.143 38.3651 90.143 37.0355V34.1463C89.947 34.3168 89.6614 34.4702 89.2864 34.6065C88.92 34.7344 88.5024 34.8494 88.0336 34.9517C87.5734 35.0455 87.0876 35.1307 86.5762 35.2074C86.0734 35.2756 85.5833 35.3395 85.106 35.3991C83.6742 35.5696 82.5066 35.8338 81.6032 36.1918C80.7083 36.5412 80.0521 37.0014 79.6345 37.5724C79.2254 38.1435 79.0208 38.8338 79.0208 39.6435C79.0208 40.9815 79.481 42.0384 80.4015 42.8139C81.322 43.5895 82.4683 43.9773 83.8404 43.9773ZM105.183 25.3636V26.7571H96.6053V25.3636H105.183ZM99.5073 20.6591H101.054V40.3594C101.054 41.1605 101.208 41.8168 101.514 42.3281C101.83 42.831 102.239 43.206 102.742 43.4531C103.253 43.6918 103.799 43.8111 104.378 43.8111C104.659 43.8111 104.902 43.7898 105.107 43.7472C105.32 43.7045 105.52 43.6491 105.708 43.581L106.091 45C105.852 45.0852 105.588 45.1577 105.299 45.2173C105.009 45.2855 104.668 45.3196 104.276 45.3196C103.458 45.3196 102.682 45.1364 101.949 44.7699C101.225 44.4034 100.637 43.8707 100.185 43.1719C99.7332 42.473 99.5073 41.6293 99.5073 40.6406V20.6591ZM118.415 45.4091C116.642 45.4091 115.1 44.9702 113.787 44.0923C112.475 43.2145 111.46 42.0128 110.745 40.4872C110.029 38.9616 109.671 37.223 109.671 35.2713C109.671 33.3111 110.029 31.5639 110.745 30.0298C111.469 28.4957 112.462 27.2855 113.723 26.3991C114.985 25.5128 116.425 25.0696 118.044 25.0696C119.144 25.0696 120.183 25.2912 121.164 25.7344C122.152 26.169 123.022 26.7997 123.772 27.6264C124.53 28.4531 125.122 29.4503 125.549 30.6179C125.983 31.7855 126.201 33.098 126.201 34.5554V35.527H110.655V34.108H124.641C124.641 32.6847 124.351 31.402 123.772 30.2599C123.192 29.1179 122.404 28.2102 121.406 27.5369C120.409 26.8636 119.289 26.527 118.044 26.527C116.74 26.527 115.577 26.8935 114.554 27.6264C113.54 28.3509 112.735 29.331 112.138 30.5668C111.55 31.8026 111.243 33.1832 111.218 34.7088V35.348C111.218 36.9844 111.503 38.4545 112.074 39.7585C112.654 41.054 113.48 42.081 114.554 42.8395C115.628 43.5895 116.915 43.9645 118.415 43.9645C119.489 43.9645 120.405 43.7855 121.164 43.4276C121.931 43.0611 122.557 42.6179 123.043 42.098C123.529 41.5781 123.895 41.0753 124.142 40.5895L125.561 41.1648C125.263 41.821 124.799 42.4773 124.168 43.1335C123.546 43.7812 122.753 44.3224 121.79 44.7571C120.835 45.1918 119.71 45.4091 118.415 45.4091ZM131.57 45V25.3636H133.091V28.4318H133.232C133.658 27.4261 134.378 26.6207 135.392 26.0156C136.406 25.402 137.561 25.0952 138.857 25.0952C138.993 25.0952 139.129 25.0952 139.266 25.0952C139.402 25.0952 139.53 25.0994 139.649 25.108V26.6804C139.547 26.6719 139.424 26.6591 139.279 26.642C139.142 26.6165 138.972 26.6037 138.767 26.6037C137.676 26.6037 136.705 26.8381 135.852 27.3068C135.009 27.7756 134.344 28.4233 133.858 29.25C133.372 30.0682 133.129 31.0057 133.129 32.0625V45H131.57ZM145.399 18.8182V45H143.839V18.8182H145.399ZM159.513 45.4091C157.74 45.4091 156.197 44.9702 154.885 44.0923C153.572 43.2145 152.558 42.0128 151.842 40.4872C151.126 38.9616 150.768 37.223 150.768 35.2713C150.768 33.3111 151.126 31.5639 151.842 30.0298C152.567 28.4957 153.56 27.2855 154.821 26.3991C156.082 25.5128 157.523 25.0696 159.142 25.0696C160.241 25.0696 161.281 25.2912 162.261 25.7344C163.25 26.169 164.119 26.7997 164.869 27.6264C165.628 28.4531 166.22 29.4503 166.646 30.6179C167.081 31.7855 167.298 33.098 167.298 34.5554V35.527H151.753V34.108H165.739C165.739 32.6847 165.449 31.402 164.869 30.2599C164.29 29.1179 163.501 28.2102 162.504 27.5369C161.507 26.8636 160.386 26.527 159.142 26.527C157.838 26.527 156.675 26.8935 155.652 27.6264C154.638 28.3509 153.832 29.331 153.236 30.5668C152.648 31.8026 152.341 33.1832 152.315 34.7088V35.348C152.315 36.9844 152.601 38.4545 153.172 39.7585C153.751 41.054 154.578 42.081 155.652 42.8395C156.726 43.5895 158.013 43.9645 159.513 43.9645C160.587 43.9645 161.503 43.7855 162.261 43.4276C163.028 43.0611 163.655 42.6179 164.14 42.098C164.626 41.5781 164.993 41.0753 165.24 40.5895L166.659 41.1648C166.361 41.821 165.896 42.4773 165.265 43.1335C164.643 43.7812 163.851 44.3224 162.888 44.7571C161.933 45.1918 160.808 45.4091 159.513 45.4091ZM185.145 29.5952L183.7 29.9787C183.47 29.2628 183.142 28.6449 182.716 28.125C182.29 27.6051 181.753 27.2045 181.105 26.9233C180.466 26.6335 179.699 26.4886 178.804 26.4886C177.364 26.4886 176.183 26.8466 175.263 27.5625C174.351 28.2784 173.895 29.2116 173.895 30.3622C173.895 31.2997 174.206 32.0753 174.828 32.6889C175.45 33.294 176.4 33.7543 177.679 34.0696L180.696 34.8239C182.247 35.2074 183.415 35.8295 184.199 36.6903C184.983 37.5426 185.375 38.6037 185.375 39.8736C185.375 40.956 185.081 41.9148 184.493 42.75C183.905 43.5852 183.091 44.2372 182.051 44.706C181.02 45.1747 179.818 45.4091 178.446 45.4091C176.614 45.4091 175.109 44.983 173.933 44.1307C172.757 43.2699 172.003 42.0384 171.67 40.4361L173.166 40.0526C173.447 41.331 174.031 42.3068 174.917 42.9801C175.812 43.6449 176.984 43.9773 178.433 43.9773C180.035 43.9773 181.327 43.598 182.307 42.8395C183.295 42.081 183.79 41.1094 183.79 39.9247C183.79 39.0213 183.5 38.2585 182.92 37.6364C182.341 37.0142 181.463 36.5582 180.287 36.2685L177.155 35.5014C175.552 35.1094 174.351 34.483 173.55 33.6222C172.748 32.7528 172.348 31.6832 172.348 30.4134C172.348 29.3565 172.625 28.4276 173.179 27.6264C173.733 26.8253 174.496 26.1989 175.467 25.7472C176.439 25.2955 177.551 25.0696 178.804 25.0696C180.466 25.0696 181.821 25.4616 182.869 26.2457C183.917 27.0298 184.676 28.1463 185.145 29.5952ZM203.25 29.5952L201.806 29.9787C201.576 29.2628 201.247 28.6449 200.821 28.125C200.395 27.6051 199.858 27.2045 199.21 26.9233C198.571 26.6335 197.804 26.4886 196.909 26.4886C195.469 26.4886 194.289 26.8466 193.368 27.5625C192.456 28.2784 192 29.2116 192 30.3622C192 31.2997 192.311 32.0753 192.933 32.6889C193.556 33.294 194.506 33.7543 195.784 34.0696L198.801 34.8239C200.352 35.2074 201.52 35.8295 202.304 36.6903C203.088 37.5426 203.48 38.6037 203.48 39.8736C203.48 40.956 203.186 41.9148 202.598 42.75C202.01 43.5852 201.196 44.2372 200.156 44.706C199.125 45.1747 197.924 45.4091 196.551 45.4091C194.719 45.4091 193.215 44.983 192.039 44.1307C190.862 43.2699 190.108 42.0384 189.776 40.4361L191.272 40.0526C191.553 41.331 192.137 42.3068 193.023 42.9801C193.918 43.6449 195.09 43.9773 196.539 43.9773C198.141 43.9773 199.432 43.598 200.412 42.8395C201.401 42.081 201.895 41.1094 201.895 39.9247C201.895 39.0213 201.605 38.2585 201.026 37.6364C200.446 37.0142 199.568 36.5582 198.392 36.2685L195.26 35.5014C193.658 35.1094 192.456 34.483 191.655 33.6222C190.854 32.7528 190.453 31.6832 190.453 30.4134C190.453 29.3565 190.73 28.4276 191.284 27.6264C191.838 26.8253 192.601 26.1989 193.573 25.7472C194.544 25.2955 195.656 25.0696 196.909 25.0696C198.571 25.0696 199.926 25.4616 200.975 26.2457C202.023 27.0298 202.781 28.1463 203.25 29.5952Z" fill="black"/>
</svg>
